<?xml version="1.0" standalone="no"?>
<!DOCTYPE svg PUBLIC "-//W3C//DTD SVG 20010904//EN"
 "http://www.w3.org/TR/2001/REC-SVG-20010904/DTD/svg10.dtd">
<svg version="1.0" xmlns="http://www.w3.org/2000/svg"
 width="2400.000000pt" height="2400.000000pt" viewBox="0 0 2400.000000 2400.000000"
 preserveAspectRatio="xMidYMid meet">
<metadata>
Created by potrace 1.14, written by Peter Selinger 2001-2017
</metadata>
<g transform="translate(0.000000,2400.000000) scale(0.100000,-0.100000)"
fill="#000000" stroke="none">
<path d="M11399 21602 c-2 -6 -76 -12 -179 -16 -96 -3 -204 -8 -240 -11 -36
-2 -108 -7 -160 -10 -99 -6 -173 -11 -275 -20 -33 -2 -96 -7 -140 -10 -44 -3
-96 -8 -115 -10 -19 -2 -64 -7 -100 -10 -36 -3 -81 -8 -100 -10 -19 -2 -60 -7
-90 -10 -119 -12 -199 -21 -260 -30 -14 -2 -52 -6 -85 -10 -33 -3 -69 -8 -80
-10 -11 -1 -45 -6 -75 -10 -30 -4 -65 -8 -77 -10 -12 -2 -57 -8 -100 -15 -123
-17 -137 -19 -158 -24 -11 -2 -45 -7 -75 -11 -30 -4 -64 -9 -75 -11 -44 -8
-203 -35 -235 -40 -19 -3 -42 -7 -50 -9 -8 -2 -35 -7 -60 -10 -25 -3 -61 -10
-80 -15 -19 -5 -53 -12 -75 -16 -48 -7 -251 -47 -355 -70 -41 -8 -84 -17 -95
-20 -76 -14 -130 -27 -434 -100 -128 -30 -241 -57 -250 -59 -25 -6 -336 -90
-421 -115 -41 -12 -82 -23 -90 -25 -23 -5 -144 -41 -360 -107 -1230 -376
-2456 -899 -3585 -1528 -48 -27 -176 -99 -225 -127 -388 -220 -1000 -610
-1382 -880 -68 -47 -152 -106 -188 -131 -81 -57 -432 -318 -520 -387 -244
-191 -306 -241 -316 -250 -6 -5 -73 -59 -147 -120 -75 -60 -136 -116 -137
-123 0 -7 39 -59 87 -115 49 -56 107 -125 130 -152 22 -28 70 -84 105 -126 34
-41 82 -98 104 -125 53 -63 334 -397 494 -588 69 -82 134 -159 145 -173 l20
-24 25 23 c14 13 50 43 80 68 30 25 57 47 60 50 3 3 70 57 150 120 80 63 147
117 150 120 5 6 443 335 476 358 11 7 80 56 154 109 347 249 975 654 1280 826
19 10 80 45 135 77 1180 679 2555 1249 3910 1620 44 12 547 141 565 145 49 10
442 97 477 105 22 5 58 12 80 15 21 4 46 8 55 11 10 3 30 7 45 10 16 2 48 9
73 14 25 5 99 19 165 30 268 47 349 60 384 65 20 3 45 6 56 9 11 2 42 7 68 10
27 4 58 9 70 12 11 2 41 6 66 9 25 3 61 7 79 10 18 2 69 9 115 15 45 6 96 12
112 15 17 2 57 7 90 10 33 3 71 8 85 10 14 3 54 7 90 10 36 3 76 7 90 10 14 2
63 7 110 11 47 3 99 8 115 10 28 3 153 13 240 19 22 2 92 6 155 10 63 4 133 8
155 10 318 28 1455 27 1890 0 141 -9 256 -16 305 -20 120 -9 207 -15 250 -19
25 -3 77 -7 115 -11 39 -3 84 -8 100 -10 17 -2 57 -7 90 -10 68 -7 88 -9 270
-30 72 -9 141 -18 155 -20 14 -2 50 -7 80 -10 30 -4 62 -8 70 -10 8 -1 37 -6
63 -9 27 -4 57 -9 66 -11 10 -2 42 -6 71 -10 29 -4 60 -8 69 -10 9 -1 36 -6
61 -10 25 -4 52 -9 60 -10 8 -1 49 -8 90 -15 41 -6 91 -15 110 -20 19 -5 53
-11 75 -15 89 -12 126 -20 415 -80 249 -52 255 -53 390 -85 52 -12 103 -23
112 -25 9 -2 43 -10 75 -19 32 -8 139 -36 238 -61 99 -26 227 -60 285 -77 58
-16 121 -34 140 -38 19 -5 116 -34 215 -65 99 -31 189 -58 200 -60 21 -5 390
-128 563 -189 436 -153 1077 -415 1471 -602 62 -30 115 -54 118 -54 2 0 112
-54 244 -120 132 -66 246 -120 254 -120 7 0 15 -4 17 -8 4 -12 156 -92 173
-92 8 0 15 -4 15 -9 0 -5 12 -14 28 -20 15 -6 34 -15 42 -21 47 -31 141 -80
153 -80 9 0 17 -4 19 -9 5 -12 147 -91 166 -91 8 0 12 -3 9 -6 -6 -7 39 -35
123 -77 25 -12 47 -24 50 -27 14 -15 143 -90 155 -90 7 0 15 -4 17 -9 4 -11
135 -91 148 -91 6 0 10 -4 10 -9 0 -5 10 -13 23 -17 12 -4 24 -9 27 -13 9 -11
64 -47 110 -72 25 -13 51 -29 57 -36 15 -14 128 -83 136 -83 3 0 19 -12 36
-27 16 -16 52 -39 78 -53 26 -14 52 -30 58 -36 17 -20 119 -84 132 -84 7 0 13
-4 13 -10 0 -10 113 -90 128 -90 6 0 12 -7 16 -15 3 -8 10 -15 15 -15 6 0 40
-22 76 -50 36 -27 73 -50 82 -50 9 0 13 -3 10 -6 -4 -4 21 -26 56 -50 34 -24
67 -47 72 -51 60 -49 257 -193 264 -193 5 0 11 -7 15 -15 3 -8 12 -15 21 -15
8 0 15 -4 15 -9 0 -11 105 -91 120 -91 5 0 10 -4 10 -9 0 -5 26 -28 58 -52 31
-24 59 -46 62 -49 24 -25 110 -90 119 -90 6 0 11 -4 11 -8 0 -5 22 -26 50 -48
27 -21 69 -56 92 -76 23 -21 47 -38 54 -38 7 0 22 14 34 30 12 17 41 52 64 77
22 25 40 50 38 54 -1 5 2 9 7 9 5 0 34 30 64 68 30 37 64 77 76 89 11 12 21
27 21 33 0 5 4 10 9 10 4 0 28 25 52 56 24 31 53 66 64 78 11 11 49 57 85 100
36 43 82 97 102 120 21 22 40 49 44 59 3 9 9 17 13 17 5 0 30 28 57 63 27 34
56 69 65 77 13 13 70 80 129 153 8 10 34 40 57 65 24 26 43 50 43 53 0 3 16
23 36 44 32 34 34 40 20 50 -9 7 -13 15 -9 18 3 4 1 7 -6 7 -14 0 -88 58 -133
103 -15 15 -30 27 -33 27 -13 0 -114 88 -108 94 4 3 1 6 -6 6 -15 0 -121 80
-121 91 0 5 -5 9 -11 9 -10 0 -90 60 -114 84 -5 6 -29 24 -51 39 -23 15 -55
40 -73 55 -17 15 -55 45 -86 66 -30 22 -55 43 -55 48 0 4 -7 8 -15 8 -9 0 -18
7 -21 15 -4 8 -11 15 -16 15 -16 0 -128 87 -121 94 4 3 -1 6 -10 6 -9 0 -44
21 -79 48 -35 26 -93 67 -130 92 -36 25 -64 48 -61 53 2 4 -1 7 -8 7 -15 0
-139 81 -139 91 0 4 -11 10 -25 13 -14 4 -23 11 -20 16 3 6 0 10 -9 10 -8 0
-35 16 -60 35 -26 19 -51 35 -56 35 -6 0 -13 7 -16 15 -4 8 -12 15 -19 15 -8
0 -20 6 -27 13 -7 6 -26 19 -41 27 -16 8 -40 25 -53 37 -14 13 -28 23 -32 23
-15 1 -141 88 -135 94 4 3 -1 6 -10 6 -15 0 -134 72 -147 88 -4 6 -26 19 -123
69 -16 9 -31 21 -34 29 -3 8 -14 14 -24 14 -11 0 -22 7 -25 15 -4 8 -12 15
-20 15 -17 0 -105 56 -98 62 2 3 -9 8 -26 12 -18 3 -29 10 -25 16 3 5 -2 10
-11 10 -15 0 -148 73 -164 90 -3 3 -21 13 -40 22 -79 39 -138 76 -133 82 4 3
-1 6 -9 6 -9 0 -69 30 -134 66 -66 37 -148 83 -184 102 -36 19 -96 51 -135 72
-231 124 -856 431 -1075 528 -25 11 -99 43 -165 72 -66 29 -138 60 -160 70
-535 238 -1627 627 -2160 770 -16 5 -88 25 -159 45 -71 20 -137 39 -145 41 -9
2 -119 30 -246 62 -553 142 -1156 269 -1590 335 -16 3 -46 8 -65 11 -19 3 -48
8 -65 11 -37 6 -356 53 -409 59 -21 3 -55 8 -75 10 -101 14 -241 31 -346 42
-27 2 -63 7 -80 9 -16 2 -56 6 -87 9 -32 3 -84 9 -115 12 -32 3 -78 7 -103 9
-135 11 -198 17 -225 20 -16 2 -77 7 -135 10 -58 4 -125 8 -150 10 -44 4 -244
14 -385 21 -38 1 -103 3 -143 3 -49 1 -71 4 -67 12 4 6 -3 5 -14 -3 -18 -11
-23 -11 -30 1 -7 11 -9 11 -14 0 -4 -11 -6 -11 -6 -1 -1 8 -6 10 -13 5 -19
-11 -37 -12 -43 -2 -3 4 -215 9 -471 9 -256 0 -463 -3 -460 -8 2 -4 -6 -8 -19
-8 -13 0 -21 4 -19 8 3 4 0 8 -5 8 -6 0 -11 -6 -11 -12 0 -8 -3 -9 -8 -3 -9
13 -35 18 -27 5 3 -5 1 -10 -4 -10 -6 0 -11 6 -11 13 0 8 -4 7 -10 -3 -8 -12
-11 -13 -19 -1 -5 7 -10 9 -12 3z"/>
<path d="M11877 18364 c-1 -1 -130 -5 -287 -9 -157 -3 -305 -8 -330 -10 -25
-1 -101 -6 -170 -10 -183 -11 -196 -12 -295 -19 -49 -4 -106 -9 -125 -11 -19
-2 -69 -7 -110 -10 -41 -4 -86 -8 -100 -10 -14 -2 -58 -7 -98 -10 -41 -4 -81
-8 -90 -9 -9 -2 -48 -7 -87 -11 -38 -4 -77 -8 -85 -10 -8 -2 -44 -6 -80 -10
-36 -3 -72 -8 -80 -10 -8 -2 -39 -7 -69 -10 -30 -4 -62 -8 -72 -10 -9 -2 -39
-6 -66 -10 -26 -4 -59 -9 -73 -11 -14 -2 -41 -7 -60 -10 -91 -14 -278 -44
-300 -49 -14 -3 -74 -14 -135 -25 -131 -24 -118 -21 -280 -55 -276 -56 -861
-196 -962 -230 -23 -8 -52 -16 -65 -19 -13 -2 -93 -25 -178 -50 -85 -26 -163
-48 -173 -51 -52 -12 -433 -138 -637 -210 -283 -100 -672 -248 -785 -300 -16
-7 -59 -25 -95 -40 -128 -53 -307 -132 -545 -243 -150 -69 -701 -349 -858
-435 -118 -65 -214 -120 -370 -211 -18 -10 -93 -55 -167 -100 -74 -44 -143
-85 -153 -91 -107 -61 -598 -387 -827 -550 -376 -268 -980 -740 -980 -766 0
-5 39 -54 87 -111 49 -57 95 -112 104 -123 19 -23 90 -107 123 -145 11 -14 77
-93 145 -175 69 -83 127 -152 131 -155 3 -3 75 -88 160 -190 84 -102 159 -190
164 -196 6 -6 47 -55 90 -107 67 -81 82 -94 95 -84 30 22 116 92 121 97 15 17
270 216 430 336 183 137 223 167 390 285 113 80 491 330 610 404 52 32 111 68
130 80 67 43 303 179 494 287 11 5 40 22 65 36 329 185 939 475 1341 639 74
30 149 60 165 68 82 36 500 187 735 266 222 73 704 219 775 234 11 2 74 18
140 35 66 17 131 33 145 36 14 3 39 9 55 14 44 14 455 104 530 116 17 3 73 14
125 24 52 11 111 22 130 25 19 3 82 14 140 25 86 15 202 33 290 45 8 1 33 4
55 8 22 3 63 9 90 12 28 3 57 8 65 10 8 2 46 6 83 10 37 3 76 8 85 10 9 1 46
6 82 9 36 4 81 9 100 11 33 4 74 8 215 21 33 3 78 7 100 9 22 2 87 7 145 10
58 4 121 9 140 10 276 27 1370 27 1685 0 22 -2 87 -6 145 -9 58 -4 116 -8 130
-11 14 -2 66 -6 115 -10 50 -3 104 -8 120 -10 51 -7 117 -14 190 -21 38 -3 78
-8 88 -10 10 -2 48 -6 85 -10 37 -3 70 -8 73 -9 3 -2 34 -7 70 -10 35 -3 71
-8 79 -10 8 -2 35 -7 60 -10 78 -10 472 -75 545 -90 66 -13 87 -18 153 -30 28
-6 346 -74 372 -80 37 -9 236 -56 250 -59 66 -16 352 -93 420 -113 47 -14 99
-29 115 -33 61 -16 204 -60 340 -104 122 -39 232 -77 590 -202 44 -15 103 -38
132 -51 28 -13 55 -23 58 -23 4 0 21 -6 38 -14 18 -8 54 -22 82 -31 27 -9 54
-20 60 -24 5 -4 37 -18 70 -31 33 -13 65 -27 70 -30 6 -4 26 -11 45 -15 19 -4
37 -11 40 -15 8 -11 193 -90 213 -90 9 0 17 -4 17 -9 0 -10 181 -91 205 -91 9
0 14 -4 11 -9 -4 -5 8 -13 26 -16 18 -4 35 -11 38 -15 8 -13 177 -90 196 -90
10 0 15 -3 11 -6 -6 -7 160 -94 180 -94 6 0 13 -4 15 -8 2 -5 44 -29 94 -54
50 -25 101 -52 115 -60 54 -34 141 -78 155 -78 8 0 14 -4 14 -9 0 -12 144 -91
165 -91 9 0 13 -5 10 -10 -4 -6 7 -13 25 -16 17 -4 28 -9 25 -12 -7 -7 118
-80 151 -88 14 -4 22 -9 19 -12 -6 -7 135 -92 153 -92 6 0 12 -4 12 -9 0 -11
131 -91 150 -91 7 0 10 -3 7 -7 -7 -6 69 -58 123 -85 14 -7 27 -15 30 -19 13
-16 177 -119 189 -119 8 0 11 -3 8 -7 -7 -7 115 -93 133 -93 5 0 10 -4 10 -8
0 -10 115 -92 130 -92 5 0 10 -4 10 -9 0 -4 28 -28 63 -52 34 -24 90 -65 124
-91 34 -26 67 -48 72 -48 5 0 11 -4 13 -9 3 -10 143 -121 152 -121 3 0 16 -10
29 -22 31 -30 66 -59 97 -80 14 -9 45 -34 70 -57 25 -22 48 -41 51 -41 3 0 28
-20 55 -45 69 -63 81 -65 119 -19 18 22 34 43 36 48 2 5 18 23 34 40 47 50
130 148 134 160 2 6 10 16 17 21 7 6 31 33 54 60 23 28 59 70 80 95 21 25 38
47 38 50 -1 3 14 21 33 40 48 50 133 151 138 163 2 6 14 20 25 31 12 12 32 35
45 51 12 17 39 48 60 70 20 22 43 49 51 61 16 23 69 85 137 162 24 26 43 50
43 54 0 3 12 19 28 35 35 37 76 84 86 102 6 9 -7 28 -43 62 -29 27 -54 49 -57
49 -3 0 -30 20 -61 45 -30 25 -51 45 -47 45 5 0 -5 8 -23 18 -17 9 -51 34 -75
54 -23 21 -68 56 -98 80 -30 23 -57 44 -60 47 -3 3 -24 19 -48 35 -23 16 -52
38 -65 50 -13 11 -49 39 -81 61 -32 22 -61 46 -63 53 -3 6 -12 12 -19 12 -8 0
-17 7 -20 15 -4 8 -11 15 -16 15 -13 0 -110 70 -121 87 -4 7 -12 13 -18 13
-14 0 -129 82 -129 92 0 4 -5 8 -10 8 -18 0 -140 86 -133 93 3 4 0 7 -7 7 -18
0 -140 80 -140 91 0 5 -5 9 -12 9 -16 0 -138 80 -138 91 0 5 -9 9 -20 9 -11 0
-23 7 -26 15 -4 8 -11 15 -17 15 -12 0 -140 81 -145 92 -2 5 -8 8 -13 8 -12 0
-143 82 -147 92 -2 4 -8 8 -14 8 -15 0 -148 81 -148 91 0 5 -7 9 -15 9 -8 0
-45 19 -82 42 -38 22 -97 56 -132 75 -69 37 -113 64 -121 74 -3 3 -15 9 -27
13 -13 4 -23 12 -23 17 0 5 -7 9 -15 9 -9 0 -50 19 -92 43 -41 23 -120 65
-174 93 -54 28 -96 54 -92 58 3 3 -2 6 -12 6 -21 0 -178 78 -183 91 -2 5 -10
9 -18 9 -9 0 -64 25 -123 55 -60 30 -114 55 -120 55 -7 0 -9 5 -6 10 3 6 -3
10 -14 10 -22 0 -194 80 -199 92 -2 5 -11 8 -19 8 -9 0 -45 14 -80 30 -34 17
-65 30 -67 30 -3 0 -44 18 -91 40 -47 22 -88 40 -90 40 -3 0 -28 11 -57 24
-29 13 -100 42 -158 66 -58 23 -118 48 -135 55 -41 18 -354 138 -490 187 -134
49 -602 205 -742 247 -424 130 -1024 283 -1423 362 -85 17 -164 33 -175 35
-11 2 -58 11 -105 19 -47 8 -96 17 -110 20 -35 7 -258 45 -295 50 -16 2 -64 9
-105 15 -41 6 -88 13 -105 15 -16 3 -46 7 -65 10 -38 6 -80 12 -151 20 -25 3
-54 7 -65 9 -11 2 -50 7 -86 10 -37 4 -75 8 -85 10 -10 2 -54 7 -98 10 -44 4
-87 9 -95 11 -8 2 -53 6 -100 10 -47 4 -101 8 -120 10 -19 2 -73 6 -120 10
-47 3 -103 8 -125 10 -22 2 -96 7 -165 11 -69 3 -154 7 -190 9 -153 8 -848 23
-853 19z"/>
<path d="M11737 14883 c-1 -1 -83 -4 -182 -8 -99 -3 -202 -8 -230 -10 -27 -1
-97 -6 -155 -10 -58 -4 -121 -8 -140 -10 -19 -2 -69 -6 -110 -10 -41 -3 -86
-8 -100 -10 -14 -2 -61 -6 -105 -10 -44 -4 -88 -9 -99 -11 -10 -2 -44 -6 -75
-9 -55 -6 -67 -8 -146 -19 -22 -3 -60 -8 -85 -11 -49 -6 -84 -11 -335 -55 -94
-16 -188 -32 -209 -36 -21 -3 -46 -7 -55 -9 -9 -2 -81 -18 -161 -35 -80 -17
-156 -33 -169 -36 -12 -3 -53 -12 -90 -20 -36 -9 -73 -17 -81 -19 -19 -4 -344
-88 -425 -110 -33 -9 -148 -43 -255 -75 -1509 -456 -2926 -1218 -4153 -2233
-51 -42 -56 -51 -45 -65 7 -9 60 -73 118 -142 58 -69 112 -134 121 -145 9 -11
43 -51 76 -90 32 -38 131 -155 218 -260 201 -241 307 -367 321 -381 5 -6 26
-31 45 -54 18 -23 39 -47 44 -54 6 -6 37 -42 69 -81 32 -38 62 -71 66 -73 4
-1 61 42 127 96 774 633 1745 1205 2648 1559 77 30 154 61 170 68 17 7 59 23
95 35 36 11 79 27 95 34 31 15 369 125 515 170 328 99 871 228 1100 262 19 3
42 7 50 10 8 3 33 7 55 10 22 3 76 11 120 19 44 7 105 17 135 21 30 4 57 8 60
9 3 1 37 5 75 9 39 5 77 9 85 11 8 1 42 6 75 9 33 4 76 9 95 11 19 2 62 7 95
10 33 3 83 7 110 10 46 4 131 11 260 20 302 22 893 22 1240 0 147 -9 243 -16
275 -20 19 -3 67 -7 105 -10 39 -4 82 -8 98 -9 15 -2 55 -7 90 -11 34 -3 89
-10 122 -15 33 -5 85 -12 115 -15 30 -3 62 -8 70 -10 8 -2 35 -7 60 -10 25 -3
72 -11 105 -16 33 -6 85 -12 115 -15 30 -3 64 -9 75 -14 11 -4 92 -22 180 -40
88 -17 169 -33 180 -36 11 -3 44 -8 72 -11 34 -4 50 -10 46 -17 -3 -6 -3 -8 1
-5 5 5 226 -48 476 -115 8 -3 84 -25 167 -50 84 -25 161 -46 171 -46 10 0 22
-4 28 -10 14 -14 245 -90 273 -90 13 0 21 -3 18 -7 -7 -7 217 -92 243 -93 9 0
20 -4 26 -10 17 -17 206 -90 233 -90 21 0 23 -2 11 -10 -12 -8 -12 -10 -1 -10
15 0 269 -110 396 -171 44 -22 87 -39 97 -39 9 0 18 -4 20 -9 4 -11 163 -91
182 -91 8 0 16 -4 18 -9 4 -13 153 -91 172 -91 9 0 16 -4 16 -8 0 -10 146 -92
164 -92 8 0 16 -4 18 -9 4 -11 191 -121 206 -121 5 0 12 -4 14 -9 5 -14 137
-91 155 -91 9 0 14 -3 10 -6 -7 -7 122 -93 140 -94 6 0 13 -4 15 -8 4 -13 123
-92 137 -92 6 0 11 -3 11 -7 0 -5 17 -19 38 -33 20 -14 89 -62 153 -107 64
-46 121 -83 128 -83 6 0 11 -4 11 -9 0 -10 105 -91 119 -91 5 0 11 -3 13 -7 6
-14 106 -93 117 -93 6 0 11 -3 11 -8 0 -11 106 -92 121 -92 7 0 10 -3 6 -6 -6
-7 120 -114 134 -114 4 0 12 6 16 14 4 7 28 37 53 67 25 29 74 87 108 128 35
42 85 100 110 130 26 30 49 58 50 63 2 4 20 26 40 47 21 21 82 93 137 161 55
67 109 132 120 144 28 30 115 134 145 172 30 38 173 208 237 281 24 28 45 55
45 60 1 4 8 14 17 21 15 11 14 13 -2 23 -10 6 -31 24 -48 40 -16 16 -32 29
-35 29 -3 0 -11 6 -18 13 -16 16 -65 56 -171 138 -44 34 -82 65 -85 68 -3 4
-32 26 -65 51 -33 24 -64 48 -70 52 -5 5 -36 27 -67 50 -32 23 -58 45 -58 50
0 4 -5 8 -10 8 -15 0 -130 82 -130 92 0 4 -5 8 -10 8 -17 0 -330 217 -323 224
3 3 -1 6 -11 6 -18 0 -139 76 -144 91 -2 5 -8 9 -14 9 -15 0 -148 81 -148 91
0 5 -6 9 -12 9 -20 0 -159 86 -151 93 3 4 -1 7 -10 7 -19 0 -210 107 -215 121
-2 5 -11 9 -20 10 -9 0 -30 9 -47 19 -16 11 -49 29 -72 41 -24 12 -43 25 -43
30 0 5 -7 9 -15 9 -17 0 -169 80 -173 92 -2 4 -10 8 -18 8 -22 0 -185 85 -178
93 4 4 -2 7 -13 7 -11 0 -57 18 -102 40 -45 22 -86 40 -92 40 -6 0 -7 5 -4 10
3 6 -2 10 -12 10 -26 0 -273 112 -267 122 3 4 -4 8 -15 8 -27 0 -221 80 -221
91 0 5 -9 9 -20 9 -11 0 -64 18 -119 40 -54 22 -104 40 -111 40 -6 0 -8 5 -5
10 3 6 -3 10 -13 10 -20 0 -196 61 -241 84 -14 7 -87 33 -161 56 -74 24 -137
47 -140 51 -3 3 -18 8 -35 11 -39 7 -369 109 -375 117 -3 3 -17 7 -32 9 -15 2
-75 17 -135 33 -104 29 -364 95 -488 124 -33 7 -91 21 -128 30 -38 9 -92 20
-120 26 -29 5 -72 13 -97 18 -75 16 -313 61 -345 66 -30 4 -79 12 -125 20 -14
2 -45 7 -70 10 -25 4 -85 13 -135 20 -117 18 -206 30 -320 41 -38 3 -73 8 -76
10 -3 1 -43 6 -90 9 -46 3 -100 8 -119 10 -112 14 -378 31 -640 41 -167 6
-699 12 -703 7z"/>
<path d="M7395 6041 l0 -3636 773 -3 772 -2 0 3638 0 3638 -772 0 -773 0 0
-3635z"/>
<path d="M10786 9671 c-1 -3 -2 -1639 -2 -3636 l1 -3630 773 -3 772 -2 0 1393
0 1393 410 -1 411 0 71 -115 c40 -63 74 -117 77 -120 3 -3 15 -21 25 -40 11
-19 37 -61 58 -93 21 -32 38 -60 38 -62 0 -2 43 -71 95 -154 52 -84 95 -156
95 -161 0 -6 5 -10 10 -10 6 0 13 -8 17 -17 9 -26 297 -491 320 -518 5 -5 12
-17 16 -25 10 -23 25 -47 263 -428 21 -34 51 -82 66 -105 15 -23 31 -49 35
-57 4 -8 14 -26 24 -40 9 -14 81 -128 160 -255 78 -126 192 -310 253 -407
l110 -178 853 0 c469 0 853 2 853 6 0 5 -351 521 -369 541 -6 7 -11 14 -11 17
0 6 -61 98 -69 106 -14 12 -51 70 -51 79 0 5 -4 11 -8 13 -5 2 -111 156 -237
343 -126 187 -310 460 -410 608 -99 147 -187 278 -195 291 -28 46 -643 961
-676 1007 -19 26 -34 51 -34 55 -1 5 -14 25 -30 44 -17 19 -30 39 -30 45 0 7
51 37 114 68 315 156 568 348 770 587 73 85 171 220 161 220 -3 0 3 9 14 21
11 12 25 35 32 53 7 17 16 33 21 36 11 8 86 173 114 250 56 158 98 347 111
500 13 154 7 423 -12 585 -22 177 -98 453 -166 601 -18 38 -33 71 -33 74 -1 3
-8 16 -17 30 -9 14 -33 54 -54 90 -45 76 -127 185 -190 254 -25 26 -45 52 -45
57 0 5 -5 9 -11 9 -5 0 -33 23 -61 50 -28 28 -52 50 -54 50 -2 0 -38 26 -81
58 -118 87 -264 171 -395 228 -38 15 -68 32 -68 36 0 5 -6 8 -12 8 -18 0 -272
83 -278 91 -3 4 -25 9 -50 12 -25 4 -62 11 -84 17 -47 14 -46 14 -176 41 -58
12 -115 22 -127 22 -12 1 -20 4 -18 8 3 3 -37 9 -88 12 -51 4 -103 9 -117 11
-14 3 -56 7 -95 11 -38 3 -92 8 -120 10 -27 3 -84 8 -125 11 -95 8 -2540 13
-2544 5z m2374 -1275 c25 -3 72 -8 105 -12 33 -3 69 -8 80 -10 11 -3 48 -7 83
-11 34 -3 62 -10 62 -16 0 -6 2 -8 5 -5 6 6 119 -26 215 -60 121 -43 242 -118
332 -206 31 -31 54 -56 52 -56 -2 0 11 -21 29 -47 62 -90 108 -225 126 -370 8
-68 6 -286 -4 -333 -2 -13 -7 -42 -10 -63 -9 -61 -60 -202 -96 -265 -98 -175
-271 -312 -484 -381 -128 -42 -160 -51 -185 -56 -14 -3 -47 -9 -75 -15 -85
-16 -108 -20 -170 -26 -33 -3 -71 -8 -85 -10 -14 -3 -202 -7 -417 -10 l-393
-3 0 985 0 986 393 -5 c215 -3 412 -7 437 -11z"/>
</g>
</svg>
